/* XPM */
static char * title_1_active_xpm[] = {
"5 5 4 1",
" 	c None",
"-	c #cccccc",
"+	c #000000",
"=	c #888888",
"+++++",
"=====",
"=====",
"+++++",
"-----"};
