/* XPM */
static char * close_active_xpm[] = {
"10 12 2 1",
" 	c #111111",
".	c #444444",
"          ",
"          ",
" ...  ... ",
" ...  ... ",
" ...  ... ",
"          ",
"          ",
" ...  ... ",
" ...  ... ",
" ...  ... ",
"          ",
"          "};
