/* XPM */
static char * close_inactive_xpm[] = {
"10 12 2 1",
" 	c #444444",
".	c #666666",
"          ",
" ...  ... ",
" ...  ... ",
" ...  ... ",
"          ",
"          ",
" ...  ... ",
" ...  ... ",
" ...  ... ",
"          ",
"          ",
"          "};
