/* XPM */
static char * close_inactive_xpm[] = {
"10 12 2 1",
" 	c None",
".	c #666666",
"          ",
" ...  ... ",
" ...  ... ",
" ...  ... ",
"          ",
"          ",
" ...  ... ",
" ...  ... ",
" ...  ... ",
"          ",
"          ",
"          "};
