/* XPM */
static char * title_1_active_xpm[] = {
"3 22 5 1",
" 	c None",
"*	c #333333",
"=	c #444444",
"+	c #444444",
"-	c #000000",
"---",
"+++",
"===",
"===",
"===",
"===",
"===",
"===",
"===",
"===",
"===",
"===",
"===",
"===",
"===",
"===",
"===",
"===",
"===",
"***",
"===",
"==="};
