/* XPM */
static char * top_left_active_xpm[] = {
"3 23 4 1",
" 	c None",
"*	c #111111",
"=	c #111111",
"-	c #555555",
"---",
"---",
"--=",
"--=",
"--=",
"--=",
"--=",
"--=",
"--=",
"--=",
"--=",
"--=",
"--=",
"--=",
"--=",
"--=",
"--=",
"--=",
"--=",
"--=",
"--=",
"--=",
"--="};
