/* XPM */
static char * top_left_active_xpm[] = {
"3 22 4 1",
" 	c None",
"*	c #202020",
"=	c #282828",
"-	c #ffffff",
"---",
"==-",
"==-",
"==-",
"==-",
"==-",
"==-",
"==-",
"==-",
"==-",
"==-",
"==-",
"==-",
"==-",
"==-",
"==-",
"==-",
"==-",
"==-",
"==-",
"==-",
"**-"};
