/* XPM */
static char * top_left_active_xpm[] = {
"3 3 4 1",
" 	c None",
"=	c #444444",
"+	c #555555",
"-	c #000000",
"---",
"++-",
"=+-"};
