/* XPM */
static char * hide_active_xpm[] = {
"14 15 3 1",
" 	c None",
".	c #000000",
"+	c #FFFFEF",
"..............",
"..............",
"..............",
"..............",
"..............",
"..............",
"..............",
"...++++++++...",
"...++++++++...",
"..............",
"..............",
"..............",
"..............",
"..............",
".............."};
