/* XPM */
static char * hide_inactive_xpm[] = {
"14 15 3 1",
" 	c None",
".	c #000000",
"+	c #888877",
"..............",
"..............",
"..............",
"..............",
"..............",
"..............",
"..............",
"...++++++++...",
"...++++++++...",
"..............",
"..............",
"..............",
"..............",
"..............",
".............."};
