/* XPM */
static char * right_active_xpm[] = {
"5 1 4 1",
" 	c None",
"-	c #cccccc",
"+	c #000000",
"=	c #888888",
"-+==+"};
