/* XPM */
static char * top_left_active_xpm[] = {
"5 5 5 1",
" 	c None",
"-	c #ffffff",
"+	c #444444",
"=	c #4b505c",
"*	c #000000",
"*==+=",
"*===+",
"*====",
" *===",
"  ***"};
