/* XPM */
static char * left_active_xpm[] = {
"5 1 4 1",
" 	c None",
"-	c #cccccc",
"+	c #444444",
"=	c #5b606c",
"+==+-"};
