/* XPM */
static char * title_1_active_xpm[] = {
"5 5 5 1",
" 	c None",
"-	c #cccccc",
"+	c #444444",
"=	c #9ba0ac",
"*	c #000000",
"*****",
"=====",
"=====",
"+++++",
"-----"};
