/* XPM */
static char * top_left_active_xpm[] = {
"5 5 4 1",
" 	c None",
"-	c #ffffff",
"+	c #444444",
"=	c #888888",
"+++  ",
"===+ ",
"====+",
"+===+",
"=+==+"};
