<?xml version="1.0" encoding="UTF-8" standalone="no"?>
<!-- Created with Inkscape (http://www.inkscape.org/) -->

<svg
   xmlns:dc="http://purl.org/dc/elements/1.1/"
   xmlns:cc="http://creativecommons.org/ns#"
   xmlns:rdf="http://www.w3.org/1999/02/22-rdf-syntax-ns#"
   xmlns:svg="http://www.w3.org/2000/svg"
   xmlns="http://www.w3.org/2000/svg"
   xmlns:sodipodi="http://sodipodi.sourceforge.net/DTD/sodipodi-0.dtd"
   xmlns:inkscape="http://www.inkscape.org/namespaces/inkscape"
   width="12"
   height="12"
   id="svg26761"
   version="1.1"
   inkscape:version="0.48.2 r9819"
   sodipodi:docname="checkbox-menuitem-checked-insensitive.svg">
  <defs
     id="defs26763" />
  <sodipodi:namedview
     id="base"
     pagecolor="#ffffff"
     bordercolor="#666666"
     borderopacity="1.0"
     inkscape:pageopacity="0.0"
     inkscape:pageshadow="2"
     inkscape:zoom="44.395604"
     inkscape:cx="5.3212571"
     inkscape:cy="2.9661138"
     inkscape:current-layer="layer1"
     showgrid="true"
     inkscape:grid-bbox="true"
     inkscape:document-units="px"
     inkscape:window-width="1920"
     inkscape:window-height="1078"
     inkscape:window-x="0"
     inkscape:window-y="0"
     inkscape:window-maximized="1" />
  <metadata
     id="metadata26766">
    <rdf:RDF>
      <cc:Work
         rdf:about="">
        <dc:format>image/svg+xml</dc:format>
        <dc:type
           rdf:resource="http://purl.org/dc/dcmitype/StillImage" />
        <dc:title></dc:title>
      </cc:Work>
    </rdf:RDF>
  </metadata>
  <g
     id="layer1"
     inkscape:label="Layer 1"
     inkscape:groupmode="layer"
     transform="translate(0,-4)">
    <path
       style="color:#000000;fill:#eeeeee;fill-opacity:1;fill-rule:nonzero;stroke:none;stroke-width:0.66700000000000004;marker:none;visibility:visible;display:inline;overflow:visible;enable-background:accumulate;opacity:0.33"
       d="M 3.6010719,6.5058632 C 3.2951279,6.516202 3.0251803,6.6124329 2.8188128,6.8188125 2.2684992,7.3691579 2.4508347,8.4325494 3.2099422,9.1916597 L 4.0182768,9.9999999 3.2099422,10.80834 c -0.7591075,0.75911 -0.941443,1.822501 -0.3911294,2.372847 0.5503135,0.550346 1.6137452,0.367984 2.3728528,-0.391207 L 6,11.9818 6.8083346,12.78998 c 0.7591078,0.759191 1.8225389,0.941553 2.3728525,0.391207 C 9.7315009,12.630841 9.5491649,11.56745 8.7900578,10.80834 L 7.9817236,9.9999999 8.7900578,9.1916597 C 9.5491649,8.4325494 9.7315009,7.3691579 9.1811871,6.8188125 8.6308735,6.268467 7.5674424,6.4508286 6.8083346,7.210019 L 6,8.0181996 5.1916656,7.210019 C 4.7172233,6.7354654 4.1109787,6.4875713 3.6010719,6.5058632 z"
       id="rect12222"
       inkscape:connector-curvature="0"
       sodipodi:nodetypes="csscsscccsscsscccc" />
  </g>
</svg>
