/* XPM */
static char * top_left_active_xpm[] = {
"5 5 5 1",
" 	c None",
"-	c #bbc0cc",
"+	c #444444",
"=	c #d55d5c",
"*	c #000000",
"*****",
"*====",
"*====",
"*==++",
"*==+-"};
