/* XPM */
static char * bottom_active_xpm[] = {
"1 5 4 1",
" 	c None",
"-	c #ffffff",
"+	c #000000",
"=	c #888888",
"-",
"+",
"*",
"-",
"+"};
