/* XPM */
static char * close_active_xpm[] = {
"10 12 3 1",
" 	c #444444",
".	c #ffffff",
"=	c #333333",
"          ",
"          ",
" ...  ... ",
" ...  ... ",
" ...  ... ",
"          ",
"          ",
" ...  ... ",
" ...  ... ",
" ...  ... ",
"          ",
"          "};
