#define close_width 10
#define close_height 10
static unsigned char close_bits[] = {
   0xfc, 0x00, 0xfe, 0x01, 0x33, 0x03, 0x03, 0x03, 0x87, 0x03, 0x87, 0x03,
   0x03, 0x03, 0x33, 0x03, 0xfe, 0x01, 0xfc, 0x00 };
