#define bullet_width 10
#define bullet_height 10
static unsigned char bullet_bits[] = {
   0x00, 0x00, 0x00, 0x00, 0xc0, 0x00, 0x80, 0x01, 0x00, 0x03, 0x00, 0x03,
   0x80, 0x01, 0xc0, 0x00, 0x00, 0x00, 0x00, 0x00 };
