/* XPM */
static char * close_active_xpm[] = {
"10 12 3 1",
" 	c #333333",
".	c #333333",
"-	c #000000",
"          ",
"          ",
" ...  ... ",
" ...  ... ",
" ...  ... ",
"          ",
"          ",
" ...  ... ",
" ...  ... ",
" ...  ... ",
"          ",
"          "};
