/* XPM */
static char * title_1_active_xpm[] = {
"3 23 4 1",
" 	c None",
"+	c #000000",
"=	c #333333",
"-	c #ffffff",
"---",
"===",
"===",
"===",
"===",
"===",
"===",
"===",
"===",
"===",
"===",
"===",
"===",
"===",
"===",
"===",
"===",
"===",
"===",
"===",
"===",
"===",
"+++"};
