/* XPM */
static char * top_left_active_xpm[] = {
"3 23 5 1",
" 	c None",
"*	c #888888",
"+	c #000000",
"=	c #333333",
"-	c #ffffff",
"++ ",
"-*+",
"=-+",
"=-+",
"=-+",
"=-+",
"=-+",
"=-+",
"=-+",
"=-+",
"=-+",
"=-+",
"=-+",
"=-+",
"=-+",
"=-+",
"=-+",
"=-+",
"=-+",
"=-+",
"=-+",
"+-+",
"--+"};
